<svg xmlns="http://www.w3.org/2000/svg" width="800" height="600" viewBox="0 0 800 600" fill="none">
  <defs>
    <linearGradient id="g1" x1="0" y1="0" x2="1" y2="1">
      <stop offset="0%" stop-color="#2563eb" stop-opacity="0.15"/>
      <stop offset="100%" stop-color="#06b6d4" stop-opacity="0.05"/>
    </linearGradient>
  </defs>
  <rect width="800" height="600" fill="url(#g1)"/>
  <path d="M0 400 Q200 300 400 380 T800 320 V600 H0 Z" fill="#2563eb" fill-opacity="0.04"/>
  <path d="M0 480 Q250 420 500 460 T800 400 V600 H0 Z" fill="#06b6d4" fill-opacity="0.06"/>
  <g stroke="#2563eb" stroke-opacity="0.08" stroke-width="1">
    <line x1="100" y1="0" x2="100" y2="600"/>
    <line x1="200" y1="0" x2="200" y2="600"/>
    <line x1="300" y1="0" x2="300" y2="600"/>
    <line x1="400" y1="0" x2="400" y2="600"/>
    <line x1="500" y1="0" x2="500" y2="600"/>
    <line x1="600" y1="0" x2="600" y2="600"/>
    <line x1="700" y1="0" x2="700" y2="600"/>
    <line x1="0" y1="100" x2="800" y2="100"/>
    <line x1="0" y1="200" x2="800" y2="200"/>
    <line x1="0" y1="300" x2="800" y2="300"/>
    <line x1="0" y1="400" x2="800" y2="400"/>
    <line x1="0" y1="500" x2="800" y2="500"/>
  </g>
  <rect x="520" y="80" width="180" height="120" rx="12" stroke="#2563eb" stroke-opacity="0.12" stroke-width="1.5" fill="#fff" fill-opacity="0.4"/>
  <rect x="540" y="100" width="80" height="8" rx="4" fill="#2563eb" fill-opacity="0.2"/>
  <rect x="540" y="120" width="140" height="6" rx="3" fill="#64748b" fill-opacity="0.15"/>
  <rect x="540" y="135" width="120" height="6" rx="3" fill="#64748b" fill-opacity="0.1"/>
  <rect x="80" y="320" width="200" height="140" rx="12" stroke="#06b6d4" stroke-opacity="0.15" stroke-width="1.5" fill="#fff" fill-opacity="0.35"/>
  <rect x="100" y="350" width="30" height="80" rx="4" fill="#2563eb" fill-opacity="0.25"/>
  <rect x="140" y="370" width="30" height="60" rx="4" fill="#06b6d4" fill-opacity="0.3"/>
  <rect x="180" y="340" width="30" height="90" rx="4" fill="#22c55e" fill-opacity="0.25"/>
</svg>
